<?xml version="1.0" encoding="utf-8"?>
<!-- Generator: Adobe Illustrator 27.9.0, SVG Export Plug-In . SVG Version: 6.00 Build 0)  -->
<svg version="1.1" id="Lager_1" xmlns="http://www.w3.org/2000/svg" xmlns:xlink="http://www.w3.org/1999/xlink" x="0px" y="0px"
	 viewBox="0 0 42 42" style="enable-background:new 0 0 42 42;" xml:space="preserve">
<style type="text/css">
	.st0{fill-rule:evenodd;clip-rule:evenodd;}
</style>
<path class="st0" d="M15,22c-1.1,0-2,0.9-2,2s0.9,2,2,2s2-0.9,2-2S16.1,22,15,22z M27,22c-1.1,0-2,0.9-2,2s0.9,2,2,2s2-0.9,2-2
	S28.1,22,27,22z M19,24c0-1.1,0.9-2,2-2s2,0.9,2,2s-0.9,2-2,2S19,25.1,19,24z"/>
</svg>
