<?xml version="1.0" encoding="utf-8"?>
<!-- Generator: Adobe Illustrator 27.9.0, SVG Export Plug-In . SVG Version: 6.00 Build 0)  -->
<svg version="1.1" id="Lager_1" xmlns="http://www.w3.org/2000/svg" xmlns:xlink="http://www.w3.org/1999/xlink" x="0px" y="0px"
	 viewBox="0 0 59 16.2" style="enable-background:new 0 0 59 16.2;" xml:space="preserve">
<style type="text/css">
	.st0{clip-path:url(#SVGID_00000036228628317831375430000018035422434765602950_);}
	.st1{fill:#242635;}
</style>
<g>
	<defs>
		<rect id="SVGID_1_" x="-1.6" y="-8.1" width="90" height="36"/>
	</defs>
	<clipPath id="SVGID_00000118395550896333939990000004666361356222773665_">
		<use xlink:href="#SVGID_1_"  style="overflow:visible;"/>
	</clipPath>
	<g style="clip-path:url(#SVGID_00000118395550896333939990000004666361356222773665_);">
		<path class="st1" d="M13,15.8c-0.2,0-0.5,0.1-0.8,0.1c-0.4,0-0.7,0.1-1.1,0.1s-0.7,0-1-0.1c-0.3,0-0.5-0.1-0.7-0.3
			C9.2,15.5,9,15.3,9,15c-0.1-0.3-0.1-0.6-0.1-1v-3.7H4.2v5.5c-0.2,0-0.5,0.1-0.8,0.1C3,16,2.6,16,2.3,16s-0.7,0-1-0.1
			c-0.3,0-0.5-0.1-0.7-0.3c-0.2-0.1-0.3-0.3-0.4-0.6S0,14.4,0,14V1.3c0.2,0,0.5-0.1,0.8-0.1c0.4-0.1,0.8-0.1,1.1-0.1
			c0.4,0,0.7,0,1,0.1c0.3,0,0.5,0.1,0.7,0.3S4,1.8,4.1,2.1c0.1,0.3,0.1,0.6,0.1,1v3.8h4.6V1.3c0.2,0,0.5-0.1,0.8-0.1
			c0.4-0.1,0.8-0.1,1.1-0.1c0.4,0,0.7,0,1,0.1c0.3,0,0.5,0.1,0.7,0.3c0.2,0.1,0.3,0.3,0.4,0.6s0.1,0.6,0.1,1V15.8z M21.7,16.2
			c-0.9,0-1.8-0.1-2.6-0.4c-0.8-0.3-1.5-0.7-2.1-1.2c-0.6-0.5-1.1-1.2-1.4-2c-0.3-0.8-0.5-1.7-0.5-2.8c0-1.1,0.2-2,0.5-2.7
			c0.4-0.8,0.8-1.4,1.4-1.9c0.6-0.5,1.2-0.9,1.9-1.1c0.7-0.2,1.5-0.4,2.2-0.4c0.8,0,1.6,0.1,2.3,0.4c0.7,0.3,1.3,0.6,1.8,1.1
			c0.5,0.4,0.9,1,1.2,1.6c0.3,0.6,0.4,1.3,0.4,2c0,0.5-0.2,1-0.5,1.2s-0.7,0.5-1.3,0.6l-5.9,0.9c0.2,0.5,0.5,0.9,1.1,1.2
			c0.5,0.3,1.2,0.4,1.9,0.4c0.7,0,1.3-0.1,1.8-0.2c0.6-0.2,1.1-0.4,1.4-0.6c0.3,0.2,0.5,0.4,0.6,0.7s0.3,0.6,0.3,0.9
			c0,0.7-0.3,1.3-1,1.6c-0.5,0.3-1.1,0.5-1.7,0.6C22.9,16.2,22.3,16.2,21.7,16.2z M21.1,6.8c-0.4,0-0.7,0.1-1,0.2
			c-0.3,0.1-0.5,0.3-0.7,0.5c-0.2,0.2-0.3,0.4-0.4,0.7c-0.1,0.2-0.1,0.5-0.1,0.7l4.1-0.7c0-0.3-0.2-0.6-0.5-1
			C22.1,7,21.7,6.8,21.1,6.8z M33.5,13.3c0.3,0,0.6,0,0.9-0.1c0.3-0.1,0.6-0.1,0.7-0.2V11l-1.7,0.1c-0.4,0-0.8,0.1-1.1,0.3
			c-0.3,0.2-0.4,0.4-0.4,0.7c0,0.3,0.1,0.6,0.4,0.8C32.5,13.2,32.9,13.3,33.5,13.3z M33.3,3.8c0.9,0,1.6,0.1,2.4,0.3
			c0.7,0.2,1.3,0.4,1.8,0.8c0.5,0.4,0.9,0.8,1.2,1.4C38.9,6.8,39,7.5,39,8.2v5.4c0,0.4-0.1,0.8-0.4,1c-0.2,0.3-0.5,0.5-0.8,0.7
			c-1,0.6-2.5,0.9-4.4,0.9c-0.8,0-1.6-0.1-2.3-0.2c-0.7-0.2-1.3-0.4-1.8-0.7c-0.5-0.3-0.9-0.7-1.1-1.2c-0.3-0.5-0.4-1.1-0.4-1.7
			c0-1.1,0.3-2,1-2.5c0.7-0.6,1.7-1,3-1.1l3.1-0.3V8.2c0-0.5-0.2-0.8-0.6-1c-0.4-0.2-1-0.3-1.8-0.3c-0.6,0-1.2,0.1-1.8,0.2
			c-0.6,0.1-1.1,0.3-1.6,0.5c-0.2-0.1-0.4-0.4-0.5-0.6c-0.1-0.3-0.2-0.6-0.2-0.9c0-0.4,0.1-0.7,0.3-1c0.2-0.3,0.5-0.5,0.9-0.6
			c0.5-0.2,1-0.3,1.6-0.4C32.1,3.9,32.7,3.8,33.3,3.8z M40.8,10c0-1.1,0.2-2,0.5-2.7c0.3-0.8,0.8-1.4,1.3-1.9c0.6-0.5,1.2-0.9,2-1.1
			C45.3,4,46.2,3.8,47,3.8c0.3,0,0.6,0,0.9,0.1c0.3,0,0.6,0.1,0.7,0.2V0.2c0.2,0,0.4-0.1,0.8-0.1C49.8,0,50.2,0,50.6,0
			c0.4,0,0.7,0,0.9,0.1c0.3,0,0.5,0.1,0.7,0.3c0.2,0.1,0.3,0.3,0.4,0.6c0.1,0.2,0.1,0.6,0.1,1v11.4c0,0.8-0.4,1.4-1.1,1.8
			c-0.5,0.3-1.1,0.6-1.8,0.8c-0.7,0.2-1.6,0.4-2.5,0.4c-1,0-2-0.1-2.8-0.4c-0.8-0.3-1.5-0.7-2.1-1.2c-0.6-0.5-1-1.2-1.3-1.9
			C40.9,11.9,40.8,11,40.8,10z M47.6,7c-0.9,0-1.5,0.2-2,0.7C45.1,8.3,44.9,9,44.9,10c0,1,0.2,1.7,0.6,2.3c0.4,0.5,1.1,0.7,1.9,0.7
			c0.3,0,0.5,0,0.8-0.1c0.2-0.1,0.4-0.2,0.6-0.3V7.3C48.4,7.1,48,7,47.6,7z M54.4,13.9c0-0.7,0.2-1.2,0.6-1.7s1-0.7,1.7-0.7
			s1.3,0.2,1.7,0.7c0.4,0.4,0.6,1,0.6,1.7c0,0.7-0.2,1.2-0.6,1.7c-0.4,0.4-1,0.7-1.7,0.7S55.4,16,55,15.6S54.4,14.6,54.4,13.9z"/>
	</g>
</g>
</svg>
